<svg id="visual" viewBox="0 0 2560 1440" width="2560" height="1440" xmlns="http://www.w3.org/2000/svg" xmlns:xlink="http://www.w3.org/1999/xlink" version="1.1"><rect x="0" y="0" width="2560" height="1440" fill="#ffffff"></rect><path d="M0 861L213.3 845.7C426.7 830.3 853.3 799.7 1280 790C1706.7 780.3 2133.3 791.7 2346.7 797.3L2560 803L2560 1441L2346.7 1441C2133.3 1441 1706.7 1441 1280 1441C853.3 1441 426.7 1441 213.3 1441L0 1441Z" fill="#dddddd"></path><path d="M0 855L213.3 883.3C426.7 911.7 853.3 968.3 1280 976.5C1706.7 984.7 2133.3 944.3 2346.7 924.2L2560 904L2560 1441L2346.7 1441C2133.3 1441 1706.7 1441 1280 1441C853.3 1441 426.7 1441 213.3 1441L0 1441Z" fill="#8d8d8d"></path><path d="M0 1116L213.3 1115.3C426.7 1114.7 853.3 1113.3 1280 1088.8C1706.7 1064.3 2133.3 1016.7 2346.7 992.8L2560 969L2560 1441L2346.7 1441C2133.3 1441 1706.7 1441 1280 1441C853.3 1441 426.7 1441 213.3 1441L0 1441Z" fill="#454545"></path><path d="M0 1249L213.3 1249.3C426.7 1249.7 853.3 1250.3 1280 1251.2C1706.7 1252 2133.3 1253 2346.7 1253.5L2560 1254L2560 1441L2346.7 1441C2133.3 1441 1706.7 1441 1280 1441C853.3 1441 426.7 1441 213.3 1441L0 1441Z" fill="#000000"></path></svg>